<?xml version="1.0" standalone="no"?>
<!DOCTYPE svg PUBLIC "-//W3C//DTD SVG 20010904//EN"
 "http://www.w3.org/TR/2001/REC-SVG-20010904/DTD/svg10.dtd">
<svg version="1.0" xmlns="http://www.w3.org/2000/svg"
 width="460.000000pt" height="460.000000pt" viewBox="0 0 460.000000 460.000000"
 preserveAspectRatio="xMidYMid meet">

<g transform="translate(0.000000,460.000000) scale(0.100000,-0.100000)"
fill="#000000" stroke="none">
<path d="M2025 4485 c-230 -27 -487 -106 -716 -220 -824 -413 -1301 -1300
-1194 -2217 94 -807 621 -1493 1375 -1792 136 -54 340 -108 500 -132 157 -24
463 -24 620 0 411 63 786 228 1085 477 368 307 613 692 735 1153 211 800 -70
1691 -700 2218 -301 253 -644 418 -1020 492 -185 37 -474 45 -685 21z m503
-40 c350 -37 673 -154 972 -353 600 -400 960 -1071 960 -1793 0 -575 -226
-1118 -634 -1524 -337 -335 -751 -544 -1212 -611 -145 -21 -458 -24 -589 -6
-408 58 -796 227 -1095 477 -103 86 -283 274 -353 367 -218 292 -357 627 -413
993 -23 149 -23 461 0 610 73 481 287 899 632 1237 118 115 187 171 319 258
184 121 376 211 576 269 286 83 544 106 837 76z"/>
<path d="M1852 4102 c-34 -10 -90 -59 -109 -95 -16 -28 -18 -68 -21 -329 l-3
-298 -277 0 c-162 0 -293 -4 -315 -11 -51 -14 -102 -61 -122 -112 -14 -37 -15
-97 -13 -473 l3 -431 29 -41 c54 -79 71 -82 404 -82 l292 0 0 -272 c0 -150 5
-292 10 -316 13 -55 42 -94 90 -121 38 -21 43 -22 488 -19 l449 3 36 28 c75
57 77 69 77 402 l0 295 295 0 c333 0 345 2 402 77 l28 36 3 449 c3 434 2 449
-18 488 -11 22 -39 52 -62 67 l-41 28 -304 3 -303 3 0 295 c0 336 -3 349 -82
401 l-42 28 -435 2 c-240 1 -446 -2 -459 -5z m914 -48 c15 -11 37 -33 48 -48
20 -26 21 -42 24 -341 l3 -314 313 -3 313 -3 36 -28 c69 -52 67 -39 67 -515 0
-428 0 -429 -22 -462 -13 -18 -36 -43 -51 -54 -27 -20 -42 -21 -342 -24 l-314
-3 -3 -314 c-3 -300 -4 -315 -24 -342 -11 -15 -36 -38 -54 -50 -33 -23 -33
-23 -464 -23 -412 0 -432 1 -464 20 -18 11 -41 34 -52 52 -19 31 -20 51 -20
346 l0 312 -305 0 c-285 0 -308 1 -345 20 -21 11 -49 34 -62 52 l-23 33 0 435
c0 417 1 436 20 468 11 18 36 43 55 55 34 21 46 22 348 25 l312 3 0 311 c0
301 1 312 22 346 12 20 38 42 62 53 38 18 69 19 468 16 413 -2 427 -3 454 -23z"/>
<path d="M1973 3910 c-12 -5 -26 -18 -32 -29 -7 -13 -11 -125 -11 -315 0 -337
-10 -308 95 -281 61 16 184 71 219 98 19 14 18 17 -36 76 -101 111 -164 273
-156 398 l4 63 -31 -1 c-16 0 -40 -4 -52 -9z"/>
<path d="M2096 3898 c-18 -71 11 -210 64 -303 18 -31 56 -82 85 -113 l53 -57
42 45 c54 57 104 134 131 202 17 40 22 76 23 148 l1 95 -196 3 -197 2 -6 -22z"/>
<path d="M2541 3839 c0 -152 -56 -280 -178 -410 l-34 -36 78 -41 c82 -42 198
-82 239 -82 l25 0 -3 300 c-3 289 -4 300 -24 320 -12 12 -40 24 -62 27 l-41 5
0 -83z"/>
<path d="M1295 3190 c-126 -9 -125 -5 -125 -392 0 -285 1 -305 20 -336 11 -18
32 -37 48 -43 16 -6 102 -9 222 -7 219 3 245 10 308 82 52 59 62 115 62 333
l0 193 250 0 c232 0 254 -2 290 -20 60 -30 92 -86 97 -168 12 -169 -70 -257
-232 -250 l-70 3 -3 183 -2 182 -56 0 c-61 0 -107 -19 -125 -52 -15 -27 -13
-412 2 -439 24 -45 60 -51 258 -47 150 4 194 8 226 23 134 59 198 181 196 375
-1 215 -96 348 -267 377 -27 4 -207 7 -401 5 l-352 -3 -3 -280 -3 -281 -33
-29 c-31 -28 -36 -29 -132 -29 l-100 0 -2 313 -3 312 -70 -5z"/>
<path d="M2630 3192 c0 -4 9 -13 20 -20 32 -19 78 -100 101 -172 29 -95 36
-236 15 -338 -19 -96 -37 -138 -85 -205 l-34 -49 132 4 133 3 29 33 c29 32 29
33 29 157 l0 125 130 0 130 0 0 -161 0 -161 70 4 c60 3 74 8 98 31 l27 27 3
303 c2 166 0 317 -3 336 -4 18 -17 44 -30 57 -21 21 -34 24 -95 24 l-70 0 0
-145 0 -145 -130 0 -130 0 0 114 c0 105 -2 117 -23 141 -14 17 -39 30 -67 36
-56 10 -250 12 -250 1z"/>
<path d="M1930 2040 l0 -301 25 -24 c17 -18 35 -25 63 -25 l39 0 -5 56 c-11
132 73 332 182 433 14 14 26 28 26 32 0 23 -260 129 -317 129 -10 0 -13 -64
-13 -300z"/>
<path d="M2578 2325 c-64 -16 -174 -63 -217 -94 l-28 -20 47 -52 c105 -114
161 -248 161 -384 l0 -85 35 0 c48 0 70 14 83 51 7 21 11 134 11 315 0 322 10
293 -92 269z"/>
<path d="M2231 2109 c-94 -113 -156 -283 -137 -381 l7 -38 199 0 200 0 0 83
c-1 129 -50 247 -148 351 -24 25 -49 46 -57 46 -7 0 -36 -27 -64 -61z"/>
<path d="M1026 1351 c-19 -21 -13 -47 15 -62 17 -8 19 -22 19 -109 0 -85 2
-100 16 -100 14 0 16 14 12 106 -3 97 -6 108 -26 122 -33 22 -27 32 18 32 29
0 40 4 40 15 0 23 -72 20 -94 -4z"/>
<path d="M3655 1341 c-6 -6 -32 -11 -60 -13 -73 -4 -61 -23 18 -26 66 -3 67
-3 67 23 0 26 -9 32 -25 16z"/>
<path d="M1948 1262 c-43 -5 -33 -20 15 -24 l42 -3 3 -77 c2 -60 6 -78 17 -78
12 0 15 15 15 68 0 95 -22 123 -92 114z"/>
<path d="M2478 1262 c-45 -5 -32 -22 17 -22 33 0 47 -5 54 -19 14 -24 5 -31
-40 -31 -43 0 -69 -21 -69 -55 0 -31 25 -55 57 -55 28 0 27 22 -1 26 -58 8
-41 59 20 59 39 0 39 0 42 -42 2 -24 7 -43 13 -43 11 0 12 140 1 158 -11 16
-59 29 -94 24z"/>
<path d="M2663 1262 c-52 -5 -38 -22 17 -22 57 0 70 -14 70 -78 0 -46 -18 -65
-57 -60 -23 2 -29 8 -31 36 -2 18 1 32 7 32 6 0 11 5 11 10 0 6 -11 10 -25 10
-22 0 -25 -4 -25 -39 0 -23 7 -46 16 -55 18 -19 94 -22 112 -4 7 7 12 39 12
73 0 82 -25 105 -107 97z"/>
<path d="M2865 1263 c-35 -8 -45 -33 -45 -110 l0 -73 30 0 c42 0 72 33 68 73
-2 24 -8 33 -25 35 -16 2 -23 -2 -23 -12 0 -9 5 -16 10 -16 18 0 10 -39 -10
-50 -20 -11 -21 -9 -18 57 3 63 5 68 27 71 12 2 34 1 47 -2 23 -6 24 -11 24
-81 0 -53 4 -75 13 -75 16 0 11 155 -6 168 -16 13 -67 21 -92 15z"/>
<path d="M3219 1260 c-17 -4 -25 -14 -27 -32 -3 -24 2 -29 47 -45 54 -19 72
-43 50 -69 -7 -8 -24 -14 -38 -12 -20 2 -27 9 -29 31 -4 34 -32 37 -32 3 0
-35 26 -56 69 -56 47 0 61 14 61 62 0 36 -2 38 -50 55 -27 10 -50 23 -50 30 0
9 16 13 50 13 28 0 50 4 50 9 0 11 -69 18 -101 11z"/>
<path d="M3388 1262 c-42 -5 -33 -22 12 -22 50 0 63 -22 58 -101 -2 -42 1 -59
10 -59 13 0 18 136 4 157 -11 17 -52 29 -84 25z"/>
<path d="M1150 1246 c-23 -28 -7 -59 43 -85 61 -33 60 -56 -3 -57 -63 -1 -65
-24 -2 -24 94 0 112 55 32 95 -19 10 -41 22 -48 28 -21 16 6 37 49 37 22 0 39
5 39 10 0 16 -96 12 -110 -4z"/>
<path d="M1370 1250 c0 -5 9 -10 20 -10 18 0 20 -7 20 -59 0 -39 -5 -63 -15
-71 -20 -16 -33 -6 -46 40 -14 46 -43 57 -33 13 13 -56 28 -78 57 -81 47 -6
57 12 57 99 l0 79 -30 0 c-16 0 -30 -4 -30 -10z"/>
<path d="M1490 1173 c14 -75 19 -88 37 -91 18 -3 22 5 34 62 7 37 16 66 20 66
4 0 13 -28 21 -62 11 -51 17 -64 34 -66 18 -3 22 5 33 70 7 40 15 81 17 91 4
11 0 17 -10 17 -10 0 -17 -15 -22 -47 -4 -27 -10 -57 -14 -68 -9 -24 -12 -17
-30 63 -17 74 -40 68 -59 -16 -8 -34 -18 -62 -22 -62 -4 0 -10 21 -13 48 -10
66 -16 82 -30 82 -10 0 -9 -19 4 -87z"/>
<path d="M1730 1245 c0 -8 5 -26 12 -40 9 -19 9 -28 0 -37 -17 -17 -15 -54 4
-72 18 -18 85 -21 115 -6 16 9 19 22 19 90 0 57 -4 80 -12 80 -9 0 -12 -17
-10 -59 4 -72 -9 -101 -46 -101 -38 0 -54 13 -50 41 2 16 11 25 26 27 29 4 29
30 0 34 -26 3 -38 38 -14 38 9 0 16 5 16 10 0 6 -13 10 -30 10 -20 0 -30 -5
-30 -15z"/>
<path d="M2090 1182 c0 -47 5 -83 12 -90 18 -18 103 -15 122 4 22 22 23 164 1
164 -11 0 -15 -18 -17 -77 l-3 -78 -33 -3 c-51 -5 -62 11 -62 89 0 39 -4 69
-10 69 -6 0 -10 -33 -10 -78z"/>
<path d="M2280 1250 c0 -5 15 -10 33 -10 48 0 57 -15 57 -92 0 -56 3 -68 16
-68 15 0 16 10 11 76 -3 41 -11 82 -17 90 -14 16 -100 20 -100 4z"/>
<path d="M3032 1248 c-27 -27 -14 -57 39 -83 63 -32 65 -60 4 -61 -57 -1 -59
-18 -4 -22 33 -2 51 2 63 13 30 31 19 53 -42 84 -57 29 -54 55 6 59 23 2 42 7
42 13 0 13 -94 11 -108 -3z"/>
<path d="M3530 1182 c0 -47 5 -83 12 -90 15 -15 63 -16 89 -2 13 7 19 7 19 0
0 -5 7 -10 15 -10 12 0 15 17 15 90 0 73 -3 90 -15 90 -12 0 -15 -14 -15 -63
0 -62 -1 -64 -34 -82 -51 -28 -66 -11 -66 76 0 39 -4 69 -10 69 -6 0 -10 -33
-10 -78z"/>
<path d="M2720 1040 c0 -6 7 -13 15 -16 8 -4 15 -12 15 -20 0 -8 5 -14 11 -14
6 0 9 12 7 28 -2 19 -9 28 -25 30 -13 2 -23 -2 -23 -8z"/>
<path d="M1188 801 c4 -65 17 -83 57 -83 42 0 55 19 55 83 0 79 -18 76 -22 -3
-3 -57 -5 -63 -26 -66 -38 -6 -52 15 -52 74 0 30 -3 54 -7 54 -5 0 -6 -27 -5
-59z"/>
<path d="M1340 790 l0 -70 50 0 c56 0 70 15 70 74 0 47 -22 66 -76 66 l-44 0
0 -70z m92 43 c22 -20 24 -66 2 -87 -8 -9 -29 -16 -45 -16 -29 0 -29 0 -29 60
0 58 1 60 27 60 14 0 35 -7 45 -17z"/>
<path d="M1506 838 c-49 -69 34 -162 92 -104 20 20 22 87 3 110 -20 24 -77 21
-95 -6z m82 0 c7 -7 12 -28 12 -48 0 -41 -14 -60 -45 -60 -31 0 -45 19 -45 60
0 41 14 60 45 60 12 0 26 -5 33 -12z"/>
<path d="M1650 790 c0 -84 18 -94 22 -13 l3 58 35 -58 c47 -78 60 -75 60 13 0
84 -18 94 -22 13 l-3 -58 -35 58 c-47 78 -60 75 -60 -13z"/>
<path d="M1813 853 c26 -4 27 -6 27 -69 0 -36 4 -64 10 -64 6 0 10 28 10 64 0
63 1 65 28 69 15 2 -2 4 -38 4 -36 0 -53 -2 -37 -4z"/>
<path d="M1935 790 c0 -43 4 -70 11 -70 6 0 9 13 6 30 -4 30 -4 30 43 30 47 0
47 0 43 -30 -3 -16 -1 -30 4 -30 4 0 8 32 8 70 0 39 -4 70 -8 70 -5 0 -7 -13
-4 -30 4 -30 4 -30 -42 -30 -44 0 -46 1 -46 30 0 17 -3 30 -7 30 -5 0 -8 -31
-8 -70z"/>
<path d="M2114 790 c-12 -39 -18 -70 -13 -70 4 0 11 9 14 20 4 14 15 20 35 20
20 0 31 -6 35 -20 3 -11 10 -20 15 -20 5 0 2 21 -6 48 -8 26 -17 57 -20 70
-12 45 -38 25 -60 -48z m50 28 c10 -38 7 -48 -14 -48 -11 0 -20 6 -20 13 0 23
12 57 20 57 4 0 10 -10 14 -22z"/>
<path d="M2250 790 c0 -81 18 -95 22 -18 l3 53 34 -53 c47 -73 61 -69 61 18 0
84 -18 94 -22 13 l-3 -57 -38 57 c-20 31 -42 57 -47 57 -6 0 -10 -30 -10 -70z"/>
<path d="M2410 790 c0 -40 4 -70 10 -70 6 0 10 30 10 70 0 40 -4 70 -10 70 -6
0 -10 -30 -10 -70z"/>
<path d="M2530 790 c0 -38 4 -70 8 -70 5 0 7 14 4 30 -4 30 -4 30 43 30 47 0
47 0 43 -30 -3 -17 0 -30 6 -30 7 0 11 27 11 70 0 39 -3 70 -7 70 -5 0 -8 -13
-8 -30 0 -29 -2 -30 -46 -30 -46 0 -46 0 -42 30 3 17 1 30 -4 30 -4 0 -8 -31
-8 -70z"/>
<path d="M2697 842 c-24 -26 -22 -85 3 -107 24 -22 67 -23 88 -1 20 20 22 87
3 110 -18 22 -74 21 -94 -2z m87 -24 c20 -58 -28 -112 -70 -78 -17 15 -19 81
-2 98 22 22 62 10 72 -20z"/>
<path d="M2836 845 c-9 -25 3 -42 45 -58 30 -12 40 -21 37 -34 -3 -14 -13 -18
-46 -18 -48 0 -56 -10 -14 -18 36 -7 77 13 77 38 0 14 -13 26 -43 40 -53 25
-53 50 1 50 20 0 37 3 37 8 0 15 -88 8 -94 -8z"/>
<path d="M2975 790 c0 -45 4 -70 11 -70 7 0 9 10 6 25 -4 23 -1 25 31 25 41 0
60 19 55 57 -3 26 -6 28 -53 31 l-50 3 0 -71z m89 38 c14 -22 1 -35 -39 -40
-27 -3 -30 0 -33 30 -3 32 -2 33 29 30 18 -2 37 -11 43 -20z"/>
<path d="M3110 790 c0 -40 4 -70 10 -70 6 0 10 30 10 70 0 40 -4 70 -10 70 -6
0 -10 -30 -10 -70z"/>
<path d="M3183 853 c28 -4 29 -5 25 -69 -2 -38 1 -64 7 -64 6 0 9 26 7 64 -4
64 -3 65 25 69 15 2 1 4 -32 4 -33 0 -47 -2 -32 -4z"/>
<path d="M3313 790 c-12 -38 -17 -70 -13 -70 5 0 12 9 15 20 4 14 15 20 35 20
20 0 31 -6 35 -20 3 -11 10 -20 14 -20 5 0 -1 32 -12 70 -15 50 -26 70 -37 70
-12 0 -23 -20 -37 -70z m51 28 c10 -38 7 -48 -14 -48 -11 0 -20 6 -20 13 0 23
12 57 20 57 4 0 10 -10 14 -22z"/>
<path d="M3450 790 l0 -70 58 2 c56 2 56 2 10 5 l-48 4 0 65 c0 36 -4 64 -10
64 -6 0 -10 -30 -10 -70z"/>
</g>
</svg>
